<?xml version="1.0" standalone="no"?>
<!DOCTYPE svg PUBLIC "-//W3C//DTD SVG 20010904//EN"
 "http://www.w3.org/TR/2001/REC-SVG-20010904/DTD/svg10.dtd">
<svg version="1.0" xmlns="http://www.w3.org/2000/svg"
 width="1536.000000pt" height="1536.000000pt" viewBox="0 0 1536.000000 1536.000000"
 preserveAspectRatio="xMidYMid meet">
<metadata>
Created by potrace 1.16, written by Peter Selinger 2001-2019
</metadata>
<g transform="translate(0.000000,1536.000000) scale(0.100000,-0.100000)"
fill="#000000" stroke="none">
<path d="M7180 14980 c-171 -21 -258 -56 -299 -123 -22 -35 -117 -497 -281
-1357 -44 -234 -85 -445 -90 -470 -5 -25 -6 -48 -2 -52 4 -4 50 -14 102 -22
241 -38 590 -56 1080 -56 465 0 805 17 1078 52 106 14 101 6 77 127 -154 780
-339 1697 -350 1736 -24 85 -97 134 -231 156 -87 13 -982 21 -1084 9z"/>
<path d="M6467 12752 c-3 -4 -22 -93 -42 -197 -20 -105 -63 -323 -95 -485 -32
-162 -81 -412 -109 -555 -79 -405 -113 -576 -210 -1055 -174 -858 -318 -1599
-471 -2415 -21 -115 -53 -282 -70 -370 -37 -191 -95 -498 -117 -613 -15 -80
-15 -85 3 -102 150 -143 1613 -266 2744 -231 195 6 373 13 395 16 22 2 101 7
175 10 255 12 774 67 990 106 185 33 307 74 340 114 19 23 15 56 -35 315 -24
124 -74 378 -110 565 -36 187 -77 396 -91 465 -13 69 -31 159 -39 200 -43 222
-181 928 -285 1450 -148 744 -284 1435 -350 1780 -28 146 -69 355 -90 465 -22
110 -54 275 -71 368 -23 121 -35 167 -45 167 -8 0 -58 -6 -112 -14 -165 -25
-372 -36 -772 -45 -386 -8 -467 -7 -831 3 -213 7 -612 43 -681 62 -9 3 -19 1
-21 -4z"/>
<path d="M5490 6694 c0 -3 7 -18 15 -32 15 -28 212 -442 250 -527 13 -27 55
-117 95 -200 58 -121 318 -674 472 -1005 124 -266 182 -387 192 -397 6 -6 67
-20 136 -32 335 -56 665 -75 1150 -68 356 5 542 18 820 57 197 27 215 33 245
80 14 22 25 42 25 44 0 3 21 49 46 103 26 54 59 125 74 158 15 33 51 110 80
170 29 61 87 184 130 275 381 810 530 1125 602 1270 25 52 45 96 44 97 -1 2
-17 -1 -34 -6 -155 -45 -484 -92 -837 -121 -645 -52 -1582 -60 -2300 -20 -172
9 -717 57 -745 65 -8 2 -64 11 -125 20 -139 20 -289 51 -315 65 -11 6 -20 8
-20 4z"/>
<path d="M6496 4303 c-4 -4 -24 -44 -45 -88 -137 -288 -458 -960 -532 -1114
-49 -101 -89 -185 -89 -186 0 -2 -45 -97 -101 -212 -56 -114 -127 -264 -159
-333 -32 -69 -89 -190 -128 -270 -89 -186 -264 -552 -312 -655 -21 -44 -61
-129 -90 -190 -102 -215 -105 -227 -70 -294 22 -43 64 -83 120 -111 240 -123
871 -244 1505 -289 442 -32 532 -35 1060 -35 549 0 660 5 1180 44 342 26 799
94 1050 156 338 84 485 159 516 264 16 52 7 82 -77 252 -37 73 -123 252 -191
398 -69 146 -152 321 -184 389 -33 67 -59 124 -59 126 0 1 -37 79 -81 171 -45
93 -119 248 -164 344 -46 96 -121 254 -167 350 -47 96 -111 231 -144 300 -279
588 -465 967 -478 975 -10 6 -89 0 -238 -18 -295 -36 -412 -45 -728 -53 -458
-11 -1063 22 -1309 71 -86 18 -76 17 -85 8z"/>
</g>
</svg>
